<svg width="768.0000000000001" height="447" xmlns="http://www.w3.org/2000/svg" stroke="null">
 <g stroke="null">
  <title stroke="null">Layer 1</title>
  <path id="svg_13" d="m241.62003,129.72863" opacity="NaN" fill="#000000" stroke="#fff"/>
  <path fill="#191919" stroke-width="3" opacity="NaN" d="m99.29241,378.64732c7.42857,14.85714 12.57143,18.28571 20.57143,23.42857c8,5.14286 18.28571,7.42857 33.71429,8c15.42857,0.57143 22.28571,-2.85714 28.57143,-6.28571c6.28571,-3.42857 10.28571,-12.57143 11.42857,-14.28571c1.14286,-1.71429 -101.71429,-25.71429 -94.28571,-10.85714l-0.00001,-0.00001z" id="svg_73" stroke="null"/>
  <path fill="#191919" stroke-width="3" opacity="NaN" d="m697.57812,396.93303c0,0 -1.14286,7.14293 -6.85714,15.42857c-5.71429,8.28564 -19.42857,10.85714 -19.86383,10.49554c0.43526,0.3616 -37.85061,2.36154 -44.13627,0.64728c-6.28566,-1.71426 -13.14276,0.85718 -21.14276,-11.14282c-8,-12 -8.57143,-18.28571 -9.00669,-18.64732c0.43526,0.3616 100.43526,-5.35268 100,-5.71429" id="svg_75" stroke="null"/>
  <path fill="#191919" stroke-width="3" opacity="NaN" d="m177.952,127.10553c2.00803,-0.40161 26.10442,-43.7751 41.36546,-58.23293c15.26104,-14.45783 25.42028,-31.31949 38.81456,-35.53926c13.39428,-4.21977 113.39428,-7.03102 138.69549,-7.03102c25.30121,0 135.74298,7.22892 148.59438,11.24498c12.85141,4.01606 44.57831,37.3494 48.59438,43.3735c4.01606,6.0241 32.93173,46.58635 32.93173,46.98795c0,0.40161 -28.51406,-4.81928 -28.65533,-5.01718c0.14128,0.1979 -14.31656,-29.52098 -23.95511,-38.75792c-9.63855,-9.23695 -31.3253,-30.12048 -34.13655,-32.12851c-2.81125,-2.00803 -8.83534,0.80321 -8.97662,0.60532c0.14127,0.1979 25.84409,34.33444 28.65533,41.16175c2.81125,6.82731 6.4257,22.08835 6.28443,21.89045c0.14127,0.1979 -29.5776,-1.00692 -29.5776,-1.40853c0,-0.40161 0.40161,-17.26908 -5.22088,-27.71084c-5.62249,-10.44177 -15.66265,-20.48193 -15.80392,-20.67983c0.14127,0.1979 -53.67399,-10.64548 -119.93905,-11.85029c-66.26506,-1.20482 -105.22089,8.43374 -105.36215,8.23584c0.14127,0.1979 -11.90693,10.63967 -13.91496,18.67179c-2.00803,8.03213 -12.85141,32.12851 -12.99267,31.93062c0.14127,0.1979 -27.97118,1.00111 -28.11245,0.80321c0.14127,0.1979 8.74268,-26.18185 18.38124,-37.82843c9.63855,-11.64659 19.91264,-26.2307 19.77137,-26.42859c0.14127,0.1979 3.28688,-0.37179 -4.81928,-1.20482c-8.10616,-0.83303 -23.97375,14.27896 -31.20267,25.92555c-7.22892,11.64659 -21.95065,34.51912 -28.63669,42.34754c-6.68604,7.82842 382.8722,11.44288 -30.78243,10.63967l-0.00001,-0.00002z" id="svg_78" stroke="null"/>
  <path fill="#333333" stroke-width="3" opacity="NaN" d="m201.57302,92.54079c0,0 -14.59607,23.01688 -14.62508,22.92267c0.029,0.09421 -29.16314,-1.02857 -29.19214,-1.12277c0.029,0.09421 -2.77793,-10.57215 8.44981,-16.74741c11.22775,-6.17526 20.20994,-5.61387 21.33272,-5.61387c1.12277,0 14.03468,0.56139 14.03468,0.56139l0.00001,-0.00001z" id="svg_79" stroke="null"/>
  <path fill="#333333" stroke-width="3" opacity="NaN" d="m607.24308,99.91552c0,0 14.23073,23.37549 14.25901,23.27981c-0.02828,0.09569 28.43317,-1.04459 28.46144,-1.14026c-0.02828,0.09567 2.7084,-10.73688 -8.23831,-17.00835c-10.94671,-6.27147 -19.70408,-5.70134 -20.79875,-5.70134c-1.09467,0 -13.68339,0.57014 -13.68339,0.57014z" id="svg_80" stroke="null"/>
  <g id="svg_26" stroke="null">
   <g id="svg_24" stroke="null">
    <path fill="url(#svg_11)" opacity="NaN" d="m165.89669,115.64149c18.54543,-5.45453 146.54547,-16.63635 237.54547,-14.63635c91,2 208.69699,12.81818 239.69699,22.81818c31,10 78.24241,43.24241 91.24241,83.24241c13,40 21.15153,56.5152 20.15153,76.5152c-1,20 0.36364,84.93937 -28.63636,103.93937c-29,19 -230.66665,13.57577 -307.75755,15.24242c-77.0909,1.66665 -267.42431,-16.45454 -317.12126,-23.18182c-49.69695,-6.72729 -44.42424,-13.84848 -47.42424,-39.84848c-3,-26 -7.36364,-52.48487 -0.36364,-77.48487c7,-25 17.78788,-71.87881 46.57576,-107.39394c28.78788,-35.51513 47.54547,-33.75758 66.09089,-39.21212z" id="svg_1" stroke="#000000"/>
    <g id="svg_20" stroke="null">
     <path fill="#333333" opacity="NaN" d="m69.28439,336.35298c0,0 223.09393,29.87658 326.0146,29.30203c102.92067,-0.57455 289.12973,-7.46915 313.52134,-10.34189c24.3916,-2.87275 28.55602,-3.4473 28.01429,-3.59492c0.54173,0.14762 -1.24302,23.12961 -10.16678,31.17331c-8.92376,8.0437 -57.11205,9.19279 -57.65378,9.04517c0.54173,0.14762 -172.57916,6.46767 -222.5522,9.34042c-49.97304,2.87275 -270.6873,-21.83289 -287.34498,-24.13109c-16.65768,-2.2982 -79.7189,-5.7455 -89.83249,-10.34189c-10.11359,-4.5964 -11.89834,-31.60023 -11.89834,-31.60023c0,0 11.89834,1.1491 11.89834,1.1491l0,-0.00001z" id="svg_4" stroke="null"/>
     <path fill="#000000" opacity="NaN" d="m60.09404,272.84206c0,0 -3.55477,46.056 2.44396,50.461c5.99872,4.40501 256.07554,35.62584 362.10972,35.5991c106.03419,-0.02673 299.41212,-8.85913 312.55996,-15.81987c13.14784,-6.96074 10.15969,-59.48272 9.61549,-59.6453c0.5442,0.16258 -141.09386,28.63835 -320.38256,25.47438c-179.2887,-3.16398 -252.19943,-18.98385 -280.88562,-22.14782c-28.68619,-3.16398 -85.46095,-13.92149 -85.46095,-13.92149z" id="svg_6" stroke="null"/>
     <path fill="#000000" opacity="NaN" d="m293.45935,259.40222l216.36324,4.24242c0.55188,0.15571 14.49124,-25.29879 14.49124,-25.29879c-3.03029,3.0303 -206.06023,-6.66665 -240.55144,-3.18601l9.69696,24.24238z" id="svg_10" stroke="null"/>
     <path fill="none" stroke-width="3" opacity="NaN" d="m144.52066,132.72511c2.66666,0.88889 -33.33328,22.22219 -51.11103,63.11101c-17.77775,40.88882 -17.77775,41.77771 -18.11566,41.49683c0.33791,0.28088 295.44855,-3.27467 339.00403,-2.38578c43.55548,0.88889 309.77727,8.88887 311.55505,9.77776c1.77777,0.88889 -7.99999,-46.22215 -29.77773,-71.111c-21.77774,-24.88885 -26.66662,-28.88884 -27.00454,-29.16972" id="svg_19" stroke="#000000"/>
    </g>
   </g>
   <path fill="none" stroke-width="3" opacity="NaN" d="m181.92495,234.59796c0,0 4.88888,-36.44439 5.77777,-36.44439c0.88889,0 -95.99984,-0.88889 -95.99984,-0.88889" id="svg_25" stroke="#000000"/>
  </g>
  <path fill="none" stroke-width="3" opacity="NaN" d="m619.54066,238.85191c-4.44444,0 -9.28393,-43.55548 -9.63687,-43.61414c0.35294,0.05866 104.79718,10.28086 104.44424,10.22221" id="svg_27" stroke="#000000"/>
  <path fill="none" stroke-width="3" opacity="NaN" d="m441.60736,219.16918" id="svg_28" stroke="#000000"/>
  <path fill="#191919" stroke-width="3" opacity="NaN" d="m249.8613,361.77234c0,0 113.77759,11.99998 145.3331,11.55554c31.5555,-0.44444 155.5553,-5.33332 155.21738,-5.39198c0.33792,0.05866 -19.66205,15.61419 -19.99997,15.55553c0.33792,0.05866 -112.99523,9.83642 -137.88408,8.50309c-24.88885,-1.33333 -118.66647,-13.33331 -123.11091,-14.2222c-4.44444,-0.88889 -19.55552,-15.99997 -19.55552,-15.99997l0,-0.00001z" id="svg_29" stroke="null"/>
 </g>
 <defs stroke="null">
  <radialGradient id="svg_11" spreadMethod="pad" cx="0.50006" cy="0.49492" stroke="null">
   <stop stop-color="#727272" stop-opacity="0.99219" offset="0" stroke="null"/>
   <stop stop-color="#212121" stop-opacity="0.99219" offset="0.961" stroke="null"/>
  </radialGradient>
 </defs>
</svg>